<?xml version="1.0" encoding="UTF-8"?>
<svg id="Layer_1" xmlns="http://www.w3.org/2000/svg" viewBox="0 0 820.61 225.82">
  <defs>
    <style>
      .cls-1 {
        fill: #fff;
      }
    </style>
  </defs>
  <g>
    <path class="cls-1" d="M171.01,78.2c-7.67-12.06-10.23-20.1-10.23-25.58,0-9.5,8.4-12.42,17.9-12.42,5.48,0,10.6.73,14.98,1.83-1.46-1.83-2.92-4.02-4.38-5.48-5.12-1.46-11.33-3.29-22.29-3.29-9.87,0-20.46,3.29-20.46,11.69,0,25.94,46.77,51.52,52.62,131.91,2.19-3.29,4.02-6.58,6.21-10.23-.73-35.08-25.21-74.54-34.35-88.43ZM188.92,71.25c-.37-8.04,2.92-11.69,10.23-11.69,2.19,0,4.38,0,6.58.37-1.83-3.29-3.65-6.58-5.85-9.5-3.65-1.1-8.04-2.19-14.62-2.19-6.94,0-12.06,2.92-12.06,9.5s5.12,19,9.87,27.41c10.23,17.54,21.56,38.37,28.5,67.6,1.83-4.38,2.92-8.4,4.02-13.15-6.21-23.39-26.31-57.37-26.67-68.33ZM106.7,196.59c-2.56,1.46-5.48,2.92-8.4,4.02,1.83,8.4.73,18.27-2.19,24.85,2.56.37,5.85.37,9.14.37,2.19-5.12,2.92-19.73,1.46-29.23ZM211.21,71.99c-5.85,0-8.04,2.56-8.04,8.4,0,9.87,11.33,36.18,14.98,46.41.73-8.4.73-13.89.73-19.37s-2.92-25.58-7.67-35.44ZM121.68,1.1c-5.48-.73-9.5-1.1-13.89-1.1-15.35,3.29-33.62,11.69-45.31,22.66,2.56.37,5.48,1.1,8.04,1.83,11.69-13.15,29.23-20.1,51.16-23.39ZM138.85,164.8c-1.83,3.29-3.65,6.21-5.85,9.14,4.38,13.15,4.38,31.79,1.83,48.23,2.92-.73,5.85-1.83,8.77-2.92,2.56-17.17.37-39.1-4.75-54.45ZM149.82,73.45c-9.87-13.89-14.98-19.37-14.98-31.06s13.52-15.35,23.39-15.35c8.4,0,14.62.37,23.39,2.19-.73-.73-4.02-3.65-4.75-4.02-6.58-1.83-14.62-2.92-23.39-2.92-17.9,0-32.16,5.48-32.16,18.27,0,6.21,4.38,13.89,12.42,24.48,3.29,4.38,12.79,17.9,19.73,27.41,23.02,31.43,30.69,58.83,31.06,100.85,2.56-2.19,5.12-4.75,7.31-7.31,1.1-47.87-19-80.39-42.02-112.55ZM65.04,209.01c-4.75.37-11.33.37-17.9-.73,2.92,2.56,13.15,8.04,16.81,9.5.73-2.56,1.1-5.85,1.1-8.77ZM124.24,183.43c-2.19,2.19-4.75,4.38-7.31,6.21,2.56,10.23,1.83,24.85-1.46,36.18,2.92-.37,5.85-.73,8.77-1.46,2.19-12.42,2.56-29.6,0-40.93ZM86.97,1.46c-11.33,1.46-35.08,9.5-46.04,19.37,4.38-.37,8.04-.37,12.79.37C62.85,11.33,76.74,4.75,86.97,1.46ZM151.64,117.3c0,2.92,0,5.48-.37,8.04,13.15,17.54,19,47.14,17.54,81.12,2.92-1.83,5.48-3.65,7.67-5.85.37-31.06-4.02-63.22-25.58-93.91.37,3.65.73,6.94.73,10.6ZM109.62,38c0-13.15,20.1-21.19,35.44-21.19,9.14,0,16.81,1.1,23.39,2.19-2.19-1.46-4.38-2.92-6.58-4.02-7.67-1.46-13.52-1.83-21.19-1.83-24.12,0-42.02,11.69-43.48,21.56,1.83,1.1,10.6,6.58,13.15,8.04-.37-.73-.73-2.19-.73-4.75ZM138.85,8.77c5.48,0,8.04,0,11.33.37-2.19-1.1-8.04-3.29-10.96-4.02-21.56-.37-45.31,5.85-60.29,21.92,1.1.37,7.67,2.92,8.77,3.29,10.6-16.08,31.06-21.19,51.16-21.56ZM148.72,140.68c-.73,4.02-2.19,8.04-3.65,11.69,8.04,17.17,9.87,41.66,6.94,63.95,3.29-1.46,5.85-2.92,8.4-4.38,1.83-22.66-1.46-49.7-11.69-71.25ZM86.24,204.99c-2.92,1.1-5.85,1.46-9.14,2.19.73,4.75.37,10.96-1.1,14.62,3.29,1.1,6.58,1.83,9.87,2.19,1.46-4.75,1.46-13.52.37-19Z"/>
    <path class="cls-1" d="M39.46,29.6s-6.21,0-9.87.37v57.37c1.83-.37,4.02-.37,5.85-.37,42.39,0,66.14,30.33,66.14,57,0,29.23-14.25,50.79-42.75,50.79h-1.1c-.37-.73-1.46-4.02-1.46-6.58,0-4.38,1.46-6.94,5.48-8.4,9.87-3.29,21.19-5.48,21.19-12.06,0-2.56-3.29-8.04-3.29-9.5,0-1.83,2.19-3.29,2.19-5.12s-2.19-2.56-4.02-3.29c.73-.73,1.83-2.56,1.83-3.65,0-2.19-3.29-2.92-3.29-5.48,0-3.29,3.29-3.65,3.29-8.4,0-1.46-3.29-2.56-6.21-4.75-8.4-6.21-12.06-14.62-16.08-21.92-4.02-6.94-9.14-11.69-17.54-11.69C14.98,93.91,0,116.56,0,141.41c0,33.62,26.67,58.47,60.29,58.47,44.21,0,82.58-35.08,82.58-79.29,0-53.71-49.7-90.99-103.41-90.99Z"/>
  </g>
  <g>
    <path class="cls-1" d="M256.9,105.43V29.81h11.78l5.04,15.11v60.51h-16.82ZM309.06,105.43l-44.56-57.09,4.17-18.53,44.56,57.09-4.17,18.53ZM309.06,105.43l-4.49-15.11V29.81h16.82v75.62h-12.33Z"/>
    <path class="cls-1" d="M328.6,105.43l29.99-75.62h15.2l29.67,75.62h-17.78l-22.7-62.76h6.11l-23.04,62.76h-17.46ZM345.62,91.73v-13.72h41.23v13.72h-41.23Z"/>
    <path class="cls-1" d="M434.38,106.61c-6.22,0-11.56-1.02-16.02-3.05-4.46-2.03-8.55-5.13-12.26-9.26l10.92-10.82c2.43,2.78,5.12,4.94,8.09,6.47,2.96,1.53,6.41,2.3,10.34,2.3,3.57,0,6.33-.64,8.3-1.93,1.97-1.28,2.94-3.07,2.94-5.36,0-2.06-.64-3.74-1.93-5.04-1.28-1.28-2.99-2.4-5.08-3.33-2.11-.93-4.43-1.82-6.95-2.67-2.54-.86-5.05-1.84-7.55-2.94-2.49-1.1-4.8-2.49-6.91-4.17-2.11-1.68-3.8-3.79-5.08-6.31-1.28-2.54-1.93-5.72-1.93-9.59,0-4.64,1.12-8.63,3.37-11.99,2.25-3.36,5.37-5.92,9.37-7.66,4-1.74,8.6-2.62,13.81-2.62s10.12.93,14.52,2.78,8.01,4.4,10.87,7.61l-10.92,10.82c-2.29-2.35-4.59-4.11-6.91-5.24-2.32-1.13-4.94-1.71-7.87-1.71s-5.24.56-6.95,1.66-2.57,2.7-2.57,4.76c0,1.93.64,3.49,1.93,4.65,1.28,1.18,2.97,2.19,5.08,3.05,2.11.86,4.43,1.71,6.96,2.57,2.52.86,5.05,1.85,7.54,3.01,2.49,1.14,4.8,2.59,6.91,4.33,2.11,1.74,3.8,3.96,5.08,6.63,1.28,2.67,1.93,5.98,1.93,9.91,0,7.21-2.57,12.87-7.71,16.98-5.15,4.11-12.25,6.15-21.31,6.15l-.02-.02Z"/>
    <path class="cls-1" d="M465.67,105.43l29.99-75.62h15.2l29.67,75.62h-17.78l-22.7-62.76h6.11l-23.04,62.76h-17.46ZM482.69,91.73v-13.72h41.23v13.72h-41.23Z"/>
    <path class="cls-1" d="M256.9,199.75v-75.62h16.82v75.62h-16.82ZM268.25,199.75v-14.79h18.74c4.57,0,8.57-.91,11.99-2.73,3.42-1.82,6.08-4.48,7.93-7.98,1.85-3.5,2.78-7.64,2.78-12.42s-.94-8.89-2.85-12.33c-1.89-3.42-4.54-6.07-7.93-7.93-3.39-1.85-7.37-2.78-11.94-2.78h-19.28v-14.68h19.49c5.71,0,10.98.91,15.8,2.73,4.83,1.82,9.03,4.43,12.65,7.82,3.6,3.39,6.39,7.39,8.36,11.99,1.97,4.6,2.94,9.69,2.94,15.27s-.98,10.57-2.94,15.2c-1.97,4.64-4.73,8.65-8.3,11.99-3.57,3.36-7.77,5.96-12.58,7.82-4.81,1.86-10.06,2.78-15.7,2.78h-19.17l.02.03Z"/>
    <path class="cls-1" d="M337.63,199.75v-75.62h16.82v75.62h-16.82Z"/>
    <path class="cls-1" d="M391.25,200.93c-6.22,0-11.56-1.02-16.02-3.05-4.46-2.03-8.55-5.13-12.26-9.26l10.92-10.82c2.43,2.78,5.12,4.94,8.09,6.48,2.96,1.54,6.41,2.3,10.34,2.3,3.56,0,6.33-.64,8.3-1.93,1.97-1.28,2.94-3.07,2.94-5.36,0-2.06-.64-3.74-1.93-5.04-1.28-1.28-2.99-2.4-5.08-3.32-2.11-.93-4.43-1.82-6.95-2.67-2.54-.86-5.05-1.84-7.55-2.94-2.49-1.1-4.8-2.49-6.91-4.17-2.11-1.68-3.81-3.79-5.08-6.32-1.28-2.54-1.93-5.72-1.93-9.59,0-4.64,1.12-8.63,3.37-11.99s5.37-5.91,9.37-7.66c4-1.74,8.6-2.62,13.81-2.62s10.12.93,14.52,2.78c4.4,1.85,8.01,4.4,10.87,7.61l-10.92,10.82c-2.29-2.35-4.59-4.11-6.91-5.24-2.32-1.14-4.94-1.71-7.87-1.71s-5.24.56-6.95,1.66c-1.71,1.1-2.57,2.7-2.57,4.76,0,1.93.64,3.49,1.93,4.65,1.28,1.18,2.97,2.19,5.08,3.05,2.11.86,4.43,1.71,6.95,2.57,2.53.86,5.05,1.85,7.55,3.01,2.49,1.14,4.8,2.59,6.91,4.33,2.11,1.74,3.8,3.97,5.08,6.64,1.28,2.67,1.93,5.98,1.93,9.91,0,7.21-2.57,12.87-7.71,16.98-5.15,4.11-12.24,6.15-21.31,6.15l-.02-.02Z"/>
    <path class="cls-1" d="M422.52,199.75l29.99-75.62h15.2l29.67,75.62h-17.78l-22.7-62.76h6.11l-23.04,62.76h-17.46ZM439.55,186.05v-13.72h41.23v13.72h-41.23Z"/>
    <path class="cls-1" d="M528.32,200.93c-6.22,0-11.56-1.02-16.02-3.05-4.46-2.03-8.55-5.13-12.26-9.26l10.92-10.82c2.43,2.78,5.11,4.94,8.09,6.48,2.96,1.54,6.41,2.3,10.34,2.3,3.57,0,6.33-.64,8.3-1.93,1.97-1.28,2.94-3.07,2.94-5.36,0-2.06-.64-3.74-1.93-5.04-1.28-1.28-2.99-2.4-5.08-3.32-2.11-.93-4.43-1.82-6.95-2.67-2.54-.86-5.05-1.84-7.55-2.94-2.49-1.1-4.8-2.49-6.91-4.17-2.11-1.68-3.8-3.79-5.08-6.32-1.28-2.54-1.93-5.72-1.93-9.59,0-4.64,1.12-8.63,3.37-11.99,2.25-3.36,5.37-5.91,9.37-7.66,4-1.74,8.6-2.62,13.81-2.62s10.12.93,14.52,2.78c4.4,1.85,8.01,4.4,10.87,7.61l-10.92,10.82c-2.29-2.35-4.59-4.11-6.91-5.24-2.32-1.14-4.94-1.71-7.86-1.71s-5.24.56-6.96,1.66c-1.71,1.1-2.57,2.7-2.57,4.76,0,1.93.64,3.49,1.93,4.65,1.28,1.18,2.97,2.19,5.08,3.05,2.11.86,4.43,1.71,6.95,2.57,2.53.86,5.05,1.85,7.55,3.01,2.49,1.14,4.8,2.59,6.91,4.33,2.11,1.74,3.8,3.97,5.08,6.64,1.28,2.67,1.93,5.98,1.93,9.91,0,7.21-2.57,12.87-7.71,16.98-5.15,4.11-12.25,6.15-21.31,6.15l-.02-.02Z"/>
    <path class="cls-1" d="M562.88,138.81v-14.68h64.15v14.68h-64.15ZM586.54,199.75v-74.55h16.82v74.55h-16.82Z"/>
    <path class="cls-1" d="M634.46,199.75v-75.62h16.82v75.62h-16.82ZM647.31,138.6v-14.45h40.91v14.45h-40.91ZM647.31,168.16v-14.04h37.7v14.04h-37.7ZM647.31,199.75v-14.56h41.45v14.56h-41.45Z"/>
    <path class="cls-1" d="M701.31,199.75v-75.62h16.82v75.62h-16.82ZM714.17,168.59v-12.42h15.96c3.36,0,5.95-.86,7.77-2.57,1.82-1.71,2.73-4.03,2.73-6.95,0-2.72-.9-4.96-2.67-6.75-1.79-1.79-4.36-2.67-7.71-2.67h-16.07v-13.06h18c5,0,9.38.94,13.17,2.85,3.79,1.89,6.75,4.51,8.89,7.87,2.14,3.36,3.21,7.21,3.21,11.57s-1.07,8.3-3.21,11.62c-2.14,3.33-5.15,5.92-9,7.77-3.85,1.85-8.39,2.78-13.6,2.78h-17.46l-.02-.03ZM742.45,199.75l-23.57-32.57,15.43-4.17,28.06,36.74h-19.92Z"/>
    <path class="cls-1" d="M791.58,200.93c-6.22,0-11.56-1.02-16.02-3.05-4.46-2.03-8.55-5.13-12.26-9.26l10.92-10.82c2.43,2.78,5.11,4.94,8.09,6.48,2.96,1.54,6.41,2.3,10.34,2.3,3.57,0,6.33-.64,8.3-1.93,1.97-1.28,2.94-3.07,2.94-5.36,0-2.06-.64-3.74-1.93-5.04-1.28-1.28-2.99-2.4-5.08-3.32-2.11-.93-4.43-1.82-6.95-2.67-2.54-.86-5.05-1.84-7.55-2.94-2.49-1.1-4.8-2.49-6.91-4.17-2.11-1.68-3.8-3.79-5.08-6.32-1.28-2.54-1.93-5.72-1.93-9.59,0-4.64,1.12-8.63,3.37-11.99,2.26-3.36,5.37-5.91,9.37-7.66,4-1.74,8.6-2.62,13.81-2.62s10.12.93,14.52,2.78c4.4,1.85,8.01,4.4,10.87,7.61l-10.92,10.82c-2.29-2.35-4.59-4.11-6.91-5.24-2.32-1.14-4.94-1.71-7.86-1.71s-5.24.56-6.96,1.66c-1.71,1.1-2.57,2.7-2.57,4.76,0,1.93.64,3.49,1.93,4.65,1.28,1.18,2.97,2.19,5.08,3.05,2.11.86,4.43,1.71,6.95,2.57,2.53.86,5.05,1.85,7.55,3.01,2.49,1.14,4.8,2.59,6.91,4.33,2.11,1.74,3.8,3.97,5.08,6.64,1.28,2.67,1.93,5.98,1.93,9.91,0,7.21-2.57,12.87-7.71,16.98-5.15,4.11-12.25,6.15-21.31,6.15l-.02-.02Z"/>
  </g>
</svg>